<svg width="20" height="20" viewBox="0 0 20 20" fill="none" xmlns="http://www.w3.org/2000/svg">
<path d="M4.21886 0.0434108C2.1173 0.230911 0.539172 0.715286 0.113391 1.30122C-0.0272339 1.49263 -0.0428589 1.7856 0.0743286 1.977C0.445422 2.58638 1.9923 3.07857 4.19933 3.28951C4.85558 3.35201 6.82433 3.3481 7.50011 3.2856C10.0509 3.04732 11.6798 2.41841 11.6798 1.6645C11.6798 1.4731 11.6056 1.34029 11.3946 1.14107C10.8204 0.61763 9.25792 0.187942 7.3673 0.0395045C6.78136 -0.00737047 4.75792 -0.00346422 4.21886 0.0434108Z" fill="#84A4E4"/>
<path d="M2.21443e-06 4.55513C2.21443e-06 5.74263 -0.00390404 5.7231 0.316408 5.98482C0.92969 6.48482 2.3125 6.85982 4.19922 7.03951C4.85547 7.10201 6.82422 7.0981 7.5 7.0356C9.66797 6.83638 11.2266 6.33247 11.582 5.727C11.6797 5.55904 11.6797 5.55513 11.6797 4.5395C11.6797 3.977 11.6719 3.51607 11.6641 3.51607C11.6563 3.51607 11.5195 3.57466 11.3594 3.64888C8.76953 4.82857 3.08985 4.86372 0.468752 3.71138C0.265627 3.62154 0.074221 3.5395 0.0507835 3.52779C0.011721 3.51216 2.21443e-06 3.73091 2.21443e-06 4.55513Z" fill="#84A4E4"/>
<path d="M2.21443e-06 8.30513C2.21443e-06 9.49263 -0.00390404 9.4731 0.316408 9.73482C0.92969 10.2348 2.3125 10.6098 4.19922 10.7895C4.85547 10.852 6.82422 10.8481 7.5 10.7856C9.66797 10.5864 11.2266 10.0825 11.582 9.477C11.6797 9.30904 11.6797 9.30513 11.6797 8.2895C11.6797 7.727 11.6719 7.26607 11.6641 7.26607C11.6563 7.26607 11.5195 7.32466 11.3594 7.39888C8.76953 8.57857 3.08985 8.61372 0.468752 7.46138C0.265627 7.37154 0.074221 7.2895 0.0507835 7.27779C0.011721 7.26216 2.21443e-06 7.48091 2.21443e-06 8.30513Z" fill="#84A4E4"/>
<path d="M13.477 10.8437C11.1332 11.0117 9.39104 11.6172 9.1762 12.332C8.94964 13.1094 10.352 13.8008 12.7348 14.0898C13.5395 14.1875 15.602 14.1875 16.4262 14.0898C18.1606 13.8828 19.4692 13.4336 19.8715 12.9023C19.9653 12.7812 19.9809 12.7227 19.9809 12.5C19.9809 12.2734 19.9653 12.2227 19.8676 12.0937C19.4731 11.5742 18.1645 11.1211 16.4848 10.918C15.977 10.8555 13.9887 10.8086 13.477 10.8437Z" fill="#84A4E4"/>
<path d="M0 12.0509C0 13.215 0 13.215 0.277344 13.4533C0.871094 13.9611 2.35156 14.3712 4.14062 14.5275C5.25 14.6251 6.80078 14.6173 7.72266 14.508L7.92578 14.4806L7.94141 13.3439C7.94922 12.7189 7.96875 12.1486 7.98828 12.0744L8.01953 11.9416L7.78906 11.9689C7.14453 12.0353 6 12.0783 5.3125 12.0548C3.20703 11.9806 1.42969 11.6603 0.316406 11.1486C0.15625 11.0744 0.0234375 11.0158 0.015625 11.0158C0.0078125 11.0158 0 11.4806 0 12.0509Z" fill="#84A4E4"/>
<path d="M9.14062 14.9259C9.14062 15.6368 9.18359 15.7696 9.50391 16.0235C10.6914 16.961 14.1914 17.3712 17.0898 16.9102C18.543 16.6798 19.5586 16.2657 19.8984 15.7618C19.9961 15.6173 20 15.5977 20 14.9727V14.336L19.7656 14.4532C17.3438 15.6759 11.9766 15.7032 9.51172 14.5079C9.33984 14.422 9.1875 14.3477 9.17188 14.3438C9.15234 14.336 9.14062 14.5977 9.14062 14.9259Z" fill="#84A4E4"/>
<path d="M0 15.8009C0 16.965 0 16.965 0.277344 17.2033C0.871094 17.7111 2.35156 18.1212 4.14062 18.2775C5.25391 18.3751 6.80078 18.3673 7.72656 18.258L7.92969 18.2306V16.9611V15.6916L7.74609 15.7189C7.23438 15.7814 6.00391 15.8283 5.3125 15.8048C3.20703 15.7306 1.42969 15.4103 0.316406 14.8986C0.15625 14.8244 0.0234375 14.7658 0.015625 14.7658C0.0078125 14.7658 0 15.2306 0 15.8009Z" fill="#84A4E4"/>
<path d="M9.14062 17.8518C9.14062 18.2698 9.15625 18.4768 9.19531 18.5666C9.44922 19.1487 10.6562 19.637 12.4609 19.887C13.2266 19.9924 15.1055 20.0354 15.9492 19.9651C17.7227 19.8166 19.1133 19.4221 19.707 18.8987C19.9883 18.6526 20 18.6057 20 17.8909C20 17.5471 19.9922 17.2659 19.9844 17.2659C19.9727 17.2659 19.9062 17.301 19.8359 17.3401C19.4023 17.5979 18.3125 17.926 17.3906 18.0823C16.1523 18.2893 14.2617 18.3635 13.0664 18.2502C11.5391 18.1018 10.2188 17.7893 9.40625 17.3791C9.28125 17.3166 9.17188 17.2659 9.16016 17.2659C9.14844 17.2659 9.14062 17.5315 9.14062 17.8518Z" fill="#84A4E4"/>
</svg>
