<svg width="17" height="17" viewBox="0 0 17 17" fill="none" xmlns="http://www.w3.org/2000/svg">
<g clip-path="url(#clip0_405_2766)">
<path d="M16.1501 12.7584V12.7026C16.1377 12.3119 15.8773 11.9647 15.5053 11.8468L12.3057 10.7926C11.9213 10.6685 11.4997 10.7988 11.2516 11.1275C11.078 11.3631 10.8796 11.6298 10.7246 11.8406C10.489 12.1631 10.0673 12.2933 9.68908 12.1631C9.14342 11.9771 8.69697 11.6856 7.9901 11.0965C7.23983 10.4639 6.54536 9.76314 5.90669 9.01276C5.31763 8.30579 5.0262 7.85309 4.84018 7.31356C4.70997 6.93527 4.84638 6.51978 5.16261 6.27792C5.37344 6.12288 5.64006 5.92444 5.87569 5.75079C6.20432 5.50894 6.33453 5.08724 6.21052 4.69655L5.15641 1.4966C5.0324 1.12451 4.69137 0.864047 4.30073 0.851644H4.24492C3.40784 0.814436 2.27932 1.29195 1.73367 1.91829C-0.67838 4.70275 2.35373 9.6143 4.87119 12.1321C7.38864 14.6499 12.2995 17.6762 15.0836 15.27C15.7037 14.7181 16.1811 13.5894 16.1501 12.7584Z" fill="white"/>
</g>
<defs>
<clipPath id="clip0_405_2766">
<rect width="17" height="17" fill="white"/>
</clipPath>
</defs>
</svg>
