<svg width="24" height="24" viewBox="0 0 28 16" fill="none" xmlns="http://www.w3.org/2000/svg">
<path d="M24.3918 11.0723C22.1518 8.89566 22.4378 9.22689 25.1544 5.48881C26.7748 3.21758 27.4421 1.79806 27.2514 1.18293C27.1561 0.804395 25.8693 0.89903 25.8693 0.89903H21.8659C21.8659 0.89903 21.2463 0.89903 21.008 1.32489C20.5791 2.12928 20.3884 3.12295 19.5306 4.58978C17.7195 7.76005 17.0046 7.94932 16.7187 7.76005C16.0514 7.28687 16.1944 5.91467 16.1944 4.92101C16.1944 1.84538 16.6233 0.567808 15.3365 0.189269C15.0506 0.0946346 14.8123 0.094634 14.3833 0.0473166C13.8591 -7.22711e-07 13.3348 0 12.8582 0C11.6667 0 10.7612 0.0473168 10.1416 0.331221C9.66504 0.567808 9.33142 1.0883 9.56972 1.13562C9.85567 1.18293 10.4276 1.32489 10.7612 1.75074C11.1901 2.31855 11.1425 3.64344 11.1425 3.64344C11.1425 3.64344 11.3808 7.28687 10.5706 7.71273C10.0463 8.04395 9.28376 7.38151 7.71099 4.49515C6.90078 3.02831 6.80546 2.03465 6.28121 1.3722C5.94759 0.946347 5.32802 0.804395 5.32802 0.804395H1.51525C1.51525 0.804395 0.848016 0.757078 0.752697 0.946347C0.562059 1.18293 0.752697 1.65611 0.752697 1.65611C0.752697 1.65611 3.75525 8.9903 7.13908 12.6811C10.1416 16.1825 13.6684 15.9933 13.6684 15.9933C13.6684 15.9933 15.7178 16.0879 16.0038 15.5674C16.1944 15.3781 16.2421 14.8103 16.2421 14.8103C16.2421 14.8103 16.1944 12.5391 17.1952 12.2079C18.1961 11.8767 19.4352 14.3845 20.7697 15.3308C21.7706 16.0879 22.0565 15.9933 22.5331 15.9933C23.4863 15.9933 26.1076 15.9933 26.1076 15.9933C26.1076 15.9933 27.9663 15.804 27.1084 14.2425C26.9655 14.1479 26.5365 13.1542 24.3918 11.0723Z" fill="#EA1414" fill-opacity="0.5"/>
</svg>
