<svg width="24" height="24" viewBox="0 0 24 24" fill="none" xmlns="http://www.w3.org/2000/svg">
<path fill-rule="evenodd" clip-rule="evenodd" d="M20.3719 3.62776C18.3808 1.63665 15.1525 1.63665 13.1614 3.62776L11.3675 5.46009C11.0551 5.77246 10.5486 5.77246 10.2363 5.46009C9.92388 5.14772 9.92388 4.64126 10.2363 4.32889L12.0302 2.49655C14.6461 -0.1193 18.8872 -0.119296 21.5031 2.49656C24.1189 5.11241 24.1189 9.35355 21.5031 11.9694L19.1197 14.3527C16.5039 16.9686 12.2628 16.9686 9.6469 14.3527C9.2332 13.939 9.1395 13.8857 8.85597 13.4018C8.63264 13.0206 8.76059 12.5306 9.14174 12.3073C9.5229 12.0839 10.0129 12.2119 10.2363 12.593C10.5577 12.9746 10.4617 12.9051 10.7781 13.2215C12.7692 15.2126 15.9974 15.2126 17.9885 13.2215L20.3719 10.8382C22.363 8.84709 22.363 5.61887 20.3719 3.62776ZM13.2219 10.7777C11.2308 8.78663 8.00256 8.78663 6.01146 10.7777L3.62813 13.1611C1.63702 15.1522 1.63702 18.3804 3.62813 20.3715C5.61924 22.3626 8.84746 22.3626 10.8386 20.3715L12.7368 18.4733C13.0492 18.1609 13.5556 18.1609 13.868 18.4733C14.1804 18.7857 14.1804 19.2921 13.868 19.6045L11.9698 21.5027C9.35391 24.1186 5.11278 24.1186 2.49692 21.5027C-0.118932 18.8869 -0.118931 14.6457 2.49692 12.0299L4.88025 9.64653C7.49611 7.03068 11.7372 7.03068 14.3531 9.64654C14.7668 10.0602 14.9305 10.2938 15.214 10.7777C15.4373 11.1589 15.3094 11.6489 14.9282 11.8723C14.5471 12.0956 14.057 11.9676 13.8337 11.5865C13.4605 11.0899 13.5383 11.0942 13.2219 10.7777Z" fill="#EA1414" fill-opacity="0.5"/>
<path fill-rule="evenodd" clip-rule="evenodd" d="M11.6519 2.11823C14.4767 -0.706568 19.0566 -0.706563 21.8814 2.11823C24.7062 4.94303 24.7062 9.52293 21.8814 12.3477L19.4981 14.7311C16.6733 17.5559 12.0934 17.5558 9.26858 14.7311C9.21437 14.6768 9.16272 14.6261 9.11363 14.5779C8.9942 14.4605 8.88997 14.3581 8.80114 14.2572C8.65943 14.0964 8.54548 13.9302 8.39434 13.6723C8.02163 13.0362 8.23516 12.2184 8.87126 11.8456C9.49271 11.4815 10.2876 11.6769 10.6714 12.2793C10.7831 12.4127 10.8476 12.4958 10.8909 12.5515C10.905 12.5697 10.9168 12.5849 10.9273 12.5981C10.9646 12.6448 11.0034 12.6902 11.1564 12.8432C12.9386 14.6254 15.8281 14.6254 17.6102 12.8432L19.9935 10.4599C21.7757 8.67771 21.7757 5.78825 19.9935 4.00609C18.212 2.22457 15.324 2.22392 13.5417 4.00413L11.7458 5.83844C11.2245 6.35975 10.3792 6.35973 9.85793 5.83842C9.33736 5.31785 9.33661 4.47431 9.85568 3.95282L11.6519 2.11823ZM12.4105 2.87293L10.6146 4.70723C10.5112 4.81066 10.5111 4.97834 10.6146 5.08177C10.7175 5.1847 10.8841 5.18519 10.9876 5.08324L12.7791 3.25346L12.7831 3.24943C14.9832 1.04938 18.5501 1.04939 20.7502 3.24944C22.9502 5.44949 22.9502 9.01647 20.7502 11.2165L18.3669 13.5999C16.1668 15.7999 12.5998 15.7999 10.3998 13.5999C10.1797 13.3797 10.1197 13.3031 10.0259 13.1834C9.97753 13.1215 9.92013 13.0482 9.82706 12.9377C9.80751 12.9145 9.78997 12.8897 9.77463 12.8635C9.70068 12.7373 9.53842 12.695 9.41222 12.7689C9.28602 12.8428 9.24365 13.0051 9.3176 13.1313C9.44999 13.3573 9.52465 13.4597 9.60411 13.5499C9.66666 13.6209 9.73001 13.6831 9.82978 13.7811C9.88284 13.8332 9.94621 13.8954 10.0252 13.9744C12.4321 16.3813 16.3345 16.3813 18.7414 13.9744L21.1248 11.5911C23.5317 9.18417 23.5317 5.28179 21.1248 2.87488C18.7185 0.468623 14.8176 0.467968 12.4105 2.87293ZM4.50193 9.26821C7.32673 6.44341 11.9066 6.44342 14.7314 9.26821C15.184 9.72078 15.3743 9.993 15.6756 10.5073C16.0483 11.1434 15.8348 11.9612 15.1987 12.3339C14.5724 12.7008 13.77 12.4995 13.3896 11.8861C13.2377 11.6826 13.1544 11.5543 13.097 11.4659C13.0837 11.4454 13.0718 11.4271 13.0608 11.4104C13.0164 11.3436 12.9803 11.2928 12.8436 11.1561C11.0614 9.3739 8.17194 9.3739 6.38978 11.1561L4.00645 13.5394C2.22429 15.3216 2.22429 18.211 4.00645 19.9932C5.78862 21.7753 8.67807 21.7753 10.4602 19.9932L12.3585 18.095C12.8798 17.5737 13.725 17.5737 14.2463 18.095C14.7676 18.6163 14.7676 19.4615 14.2463 19.9828L12.3481 21.881C9.52329 24.7058 4.94339 24.7058 2.1186 21.881C-0.7062 19.0562 -0.706199 14.4763 2.1186 11.6515L4.50193 9.26821ZM13.9748 10.0249C11.5679 7.61795 7.66549 7.61795 5.25858 10.0249L2.87525 12.4082C0.468336 14.8151 0.468336 18.7175 2.87525 21.1244C5.28216 23.5313 9.18453 23.5313 11.5914 21.1244L13.4897 19.2262C13.5931 19.1227 13.5931 18.955 13.4897 18.8516C13.3862 18.7482 13.2185 18.7482 13.1151 18.8516L11.2169 20.7498C9.01684 22.9499 5.44985 22.9499 3.2498 20.7498C1.04975 18.5498 1.04975 14.9828 3.2498 12.7827L5.63313 10.3994C7.83318 8.19936 11.4002 8.19936 13.6002 10.3994C13.7799 10.5791 13.8632 10.6844 13.9523 10.8186C13.9672 10.8411 13.9816 10.8633 13.9967 10.8865C14.0552 10.9766 14.1226 11.0803 14.2614 11.2651C14.2737 11.2814 14.285 11.2984 14.2953 11.316C14.3693 11.4422 14.5315 11.4846 14.6577 11.4106C14.7839 11.3367 14.8263 11.1744 14.7524 11.0482C14.4866 10.5947 14.3496 10.3997 13.9748 10.0249Z" fill="#EA1414" fill-opacity="0.5"/>
</svg>
