<svg width="24" height="24" viewBox="0 0 14 24" fill="none" xmlns="http://www.w3.org/2000/svg">
<path d="M6.98276 12.4094C3.72136 12.4094 1.01064 9.59412 1.01064 6.26288C1.01064 2.81643 3.72136 0 6.98391 0C10.3573 0 12.956 2.81523 12.956 6.26288C12.9502 7.89856 12.3198 9.46492 11.2035 10.6177C10.0871 11.7705 8.576 12.4153 7.00238 12.4106L6.98276 12.4094ZM6.98276 3.62045C5.602 3.62045 4.55143 4.82646 4.55143 6.26408C4.55143 7.6993 5.602 8.79131 6.98391 8.79131C8.42124 8.79131 9.4164 7.6993 9.4164 6.26408C9.41755 4.82526 8.42124 3.62045 6.98276 3.62045ZM9.36098 17.5238L12.7355 20.9139C13.3993 21.6591 13.3993 22.7511 12.7355 23.4411C12.0174 24.1863 10.9103 24.1863 10.3573 23.4411L6.98391 19.9934L3.72136 23.4411C3.39002 23.7855 2.9467 23.9571 2.44796 23.9571C2.06121 23.9571 1.61905 23.7843 1.23115 23.4411C0.56732 22.7511 0.56732 21.6591 1.23115 20.9127L4.65995 17.5226C3.42169 17.1415 2.23385 16.6017 1.12378 15.9158C0.293708 15.4562 0.128618 14.3078 0.570783 13.445C1.12378 12.5834 2.11894 12.3542 3.00442 12.929C4.20346 13.6895 5.58097 14.0919 6.98564 14.0919C8.39032 14.0919 9.76783 13.6895 10.9669 12.929C11.8523 12.3542 12.9018 12.5834 13.3993 13.445C13.8981 14.3078 13.6753 15.455 12.9006 15.9158C11.8512 16.6058 10.6344 17.123 9.36214 17.525L9.36098 17.5238Z" fill="#EA1414" fill-opacity="0.5"/>
</svg>
