<svg width="24" height="24" viewBox="0 0 25 22" fill="none" xmlns="http://www.w3.org/2000/svg">
<path d="M1.03033 10.2464C3.48559 8.77676 6.22633 7.55015 8.78715 6.31727C13.1927 4.29791 17.6158 2.31354 22.0836 0.466124C22.9528 0.151342 24.5147 -0.156498 24.6678 1.24338C24.584 3.22489 24.239 5.1948 24.0024 7.16471C23.4018 11.4967 22.7076 15.8139 22.0307 20.1317C21.7975 21.5699 20.1396 22.3144 19.0787 21.394C16.5293 19.5226 13.9602 17.6695 11.4434 15.7547C10.6189 14.8444 11.3834 13.537 12.1197 12.8869C14.2195 10.6382 16.4464 8.72759 18.4365 6.36263C18.9733 4.95391 17.3872 6.14115 16.864 6.5049C13.9894 8.6576 11.1851 10.9417 8.15434 12.8336C6.60623 13.7597 4.80187 12.9683 3.25446 12.4515C1.86701 11.8273 -0.165979 11.1983 1.03033 10.2464Z" fill="#EA1414" fill-opacity="0.5"/>
</svg>
