<svg width="49" height="66" viewBox="0 0 49 66" fill="none" xmlns="http://www.w3.org/2000/svg">
<path d="M0 66V57.5527L20.1765 31.1899C23.2245 27.353 24.7485 24.0113 24.7485 21.1646C24.7485 18.256 22.5619 16.8017 18.1886 16.8017C12.8215 16.8017 7.62 18.225 2.5842 21.0717V4.6413C9.0115 1.5471 16.5984 0 25.3448 0C32.3685 0 37.7688 1.609 41.5456 4.827C45.3888 7.9831 47.3103 12.2222 47.3103 17.5443C47.3103 23.7947 44.8256 30.1997 39.856 36.7595L33.5943 44.9283C31.8715 47.0942 30.5794 48.6414 29.7181 49.5696V49.6624C31.7059 49.4768 33.7268 49.384 35.7809 49.384H49V66H0Z" fill="white"/>
</svg>
