<svg width="45" height="66" viewBox="0 0 45 66" fill="none" xmlns="http://www.w3.org/2000/svg">
<path d="M0 62.3797V46.2279C5.4375 48.7651 10.7188 50.0338 15.8438 50.0338C22.2188 50.0338 25.4062 47.8678 25.4062 43.5359C25.4062 41.4318 24.4688 39.8537 22.5938 38.8017C20.7812 37.7496 18.3125 37.2236 15.1875 37.2236C13.9375 37.2236 12.3437 37.3474 10.4062 37.5949L8.8125 31.1899L16.3125 19.4937C16.3125 19.4318 16.5938 19.0295 17.1562 18.2869C17.7188 17.4824 18.1562 16.8636 18.4688 16.4304L18.375 16.2447C17.6875 16.3066 16.4375 16.3376 14.625 16.3376H1.5V0H41.625V8.5401L30.2812 26.3629C40.0938 28.5907 45 34.8101 45 45.0211C45 51.0239 42.625 56.0366 37.875 60.0591C33.1875 64.0197 27 66 19.3125 66C11.1875 66 4.75 64.7932 0 62.3797Z" fill="white"/>
</svg>
