<svg width="20" height="20" viewBox="0 0 20 20" fill="none" xmlns="http://www.w3.org/2000/svg">
<path d="M8.8457 0.043211C6.94336 0.277586 5.26367 0.976805 3.72852 2.17993C3.32227 2.50024 2.36133 3.48462 2.04492 3.90649C1.00195 5.30102 0.349609 6.81665 0.0878906 8.4768C-0.0136719 9.11743 -0.0136719 10.8831 0.0878906 11.5237C0.408203 13.551 1.33398 15.4221 2.74414 16.8987C4.2832 18.5081 6.1582 19.5041 8.37305 19.8909C9.05273 20.0081 10.4941 20.0354 11.2129 19.9416C15.8535 19.3596 19.4551 15.7073 19.959 11.0666C20.0215 10.5002 19.9902 8.98462 19.9043 8.46118C19.1855 4.03149 15.6543 0.605711 11.248 0.058836C10.7207 -0.00366402 9.32227 -0.0153828 8.8457 0.043211ZM10.4121 4.31665C10.5176 4.37915 10.623 4.48852 10.6895 4.6018L10.7988 4.7854L10.8105 7.44165L10.8184 10.0979L12.8262 12.1096C13.9316 13.2151 14.8613 14.176 14.8965 14.2463C14.9316 14.3166 14.959 14.4651 14.959 14.5823C14.959 15.1448 14.4121 15.5354 13.8926 15.3362C13.7637 15.2893 13.2793 14.8245 11.4941 13.0393C9.52539 11.0627 9.25586 10.7815 9.2207 10.637C9.18945 10.5237 9.17773 9.60571 9.18555 7.62915L9.19727 4.7854L9.30273 4.6018C9.54102 4.20337 10.0098 4.08227 10.4121 4.31665Z" fill="#84A4E4"/>
</svg>
