<svg width="30" height="30" viewBox="0 0 30 30" fill="none" xmlns="http://www.w3.org/2000/svg">
<rect width="30" height="30" rx="15" fill="#84A4E4"/>
<path d="M12.8741 7.54533C9.63715 7.99945 7.28522 10.8179 7.51556 13.9675C7.6762 16.1707 9.00976 18.0721 11.0677 19.0243C12.3982 19.6425 13.9046 19.789 15.3412 19.4374C15.9352 19.2909 16.6778 18.9804 17.1445 18.6786L17.3506 18.5467L17.5537 18.743C17.6658 18.8514 18.5266 19.7099 19.4631 20.6503C20.5694 21.7607 21.2119 22.3848 21.2907 22.4229C21.3725 22.4639 21.4877 22.4873 21.6483 22.4932C21.8544 22.5049 21.9029 22.4961 22.0484 22.4287C22.3394 22.2881 22.5 22.0361 22.5 21.7021C22.5 21.3623 22.5121 21.3769 20.5027 19.3612C19.5025 18.3563 18.666 17.5155 18.6478 17.4862C18.6145 17.4451 18.6236 17.4188 18.7054 17.325C18.8903 17.0994 19.2237 16.5896 19.3813 16.2879C19.6783 15.7136 19.8905 15.072 19.9905 14.4304C20.0632 13.9762 20.0632 13.1354 19.9905 12.6696C19.8177 11.5709 19.3358 10.5191 18.6236 9.69873C17.587 8.50337 16.2141 7.7592 14.632 7.5424C14.2379 7.48673 13.2741 7.48966 12.8741 7.54533ZM14.4259 9.14207C15.7261 9.312 16.9748 10.1001 17.6931 11.2047C18.2083 12.0016 18.4599 13.0036 18.369 13.9177C18.2356 15.3034 17.5022 16.5047 16.3232 17.2635C14.7865 18.2567 12.7922 18.2596 11.2495 17.2752C9.50076 16.159 8.74608 14.0817 9.39468 12.1832C9.63412 11.483 9.97963 10.9439 10.5312 10.4136C11.5799 9.39696 12.9498 8.95163 14.4259 9.14207Z" fill="white"/>
</svg>
